<svg width="26" height="30" viewBox="0 0 26 30" fill="none" xmlns="http://www.w3.org/2000/svg">
<path d="M13.0089 15.5C19.8439 15.5 25.4783 21.696 25.4991 29.4666C25.4586 29.4713 25.4105 29.4758 25.3535 29.4798C25.1516 29.4938 24.8671 29.5 24.4632 29.5C23.935 29.5 23.2256 29.4896 22.2669 29.4755C21.7596 29.468 21.1824 29.4595 20.5254 29.451C18.6311 29.4265 16.0835 29.402 12.6579 29.402C9.23222 29.402 6.72847 29.4265 4.89981 29.451C4.219 29.4602 3.63345 29.4693 3.12943 29.4771C2.27592 29.4904 1.6562 29.5 1.20365 29.5C0.89204 29.5 0.67311 29.4953 0.518736 29.4855C0.53048 21.706 6.1685 15.5 13.0089 15.5Z" stroke="#D6C7C5"/>
<circle cx="12.5" cy="7.5" r="7" stroke="#D6C7C5"/>
</svg>
